<?xml version="1.0" encoding="utf-8"?>
<!-- Generator: Adobe Illustrator 25.0.0, SVG Export Plug-In . SVG Version: 6.00 Build 0)  -->
<svg version="1.1" id="Layer_1" xmlns="http://www.w3.org/2000/svg" xmlns:xlink="http://www.w3.org/1999/xlink" x="0px" y="0px"
	 viewBox="0 0 542.9 174.9" style="enable-background:new 0 0 542.9 174.9;" xml:space="preserve">
<style type="text/css">
	.st0{fill:#FEFEFE;}
	.st1{fill:#F1DE1D;}
</style>
<g id="Layer_2_1_">
	<g id="Layer_1-2">
		<g id="Layer_1-2-2">
			<path class="st0" d="M542.8,87.6c0-27.5-0.1-54.9,0.1-82.4c0-3.6-0.5-5.2-4.8-5.2c-55.3,0.2-110.6,0.2-165.9,0
				c-3.4,0-4.5,0.7-4.5,4.3c0.1,55.3,0.1,110.5,0,165.8c0,3.8,1.1,4.7,4.8,4.7c55.1-0.1,110.3-0.1,165.4,0c4.4,0,5.1-1.5,5.1-5.4
				C542.7,142.2,542.8,114.9,542.8,87.6z"/>
			<path class="st1" d="M542.8,87.6c0,27.3-0.1,54.6,0.1,81.9c0,3.9-0.7,5.4-5.1,5.4c-55.1-0.2-110.3-0.2-165.4,0
				c-3.7,0-4.8-0.9-4.8-4.7c0.1-55.3,0.1-110.5,0-165.8c0-3.7,1.2-4.4,4.5-4.4c55.3,0.1,110.6,0.1,165.9,0c4.2,0,4.8,1.5,4.8,5.2
				C542.8,32.6,542.8,60.1,542.8,87.6z"/>
			<g id="original-wordmark">
				<path id="path4" d="M100.9,158.2V87.1h3.9v11.2c0.5-0.5,0.9-1,1.3-1.6c3.2-6.7,10-10.9,17.4-10.8c8.8-0.3,15.9,3,20.1,10.8
					c5.4,9.9,5.7,21.8,0.8,31.9c-3.9,8.8-13.6,13.1-23.9,11.5c-6.6-0.6-12.4-4.4-15.5-10.2v28.3H100.9z M104.7,112.2
					c0.3,3.5,0.5,5.9,0.9,8.3c1.5,9.5,7.1,15.2,16,16.2c8.5,1.4,16.9-3.4,19.9-11.5c3.4-8.2,3.2-17.4-0.7-25.4
					c-3.2-7.2-10.9-11.5-18.7-10.3c-7.4,0.5-13.6,5.7-15.5,12.8C105.8,105.5,105.2,108.8,104.7,112.2L104.7,112.2z"/>
				<path id="path6" d="M226.6,121.9c-1.2,10.4-9.9,18.2-20.3,18.4c-16.2,0.8-23.8-9.9-25-22.3c-0.8-6.7,0.3-13.6,3.1-19.7
					c4.2-8.6,13.4-13.6,22.9-12.2c9,0.8,16.5,7.2,18.6,16c0.8,3.9,1.4,7.8,1.8,11.8h-42.5c-0.8,11.2,5.2,20.3,13.8,22.5
					c10.7,2.6,19.8-2,23.1-12.1C222.9,121.5,224.3,121.2,226.6,121.9z M185.3,110.2h38c-0.2-12-7.7-20.6-17.8-20.8
					C194,89.2,185.8,97.6,185.3,110.2z"/>
				<path id="path8" d="M234.5,122.2h3.7c0.3,5.6,3.7,10.5,8.8,12.8c6.4,2.9,13.7,2.7,19.9-0.5c3.4-1.6,5.5-5.1,5.2-8.8
					c0.2-3.6-2-6.9-5.5-8.1c-4.1-1.5-8.5-2.4-12.6-3.7c-4.3-1.2-8.6-2.8-12.7-4.7c-6.7-3.3-7.1-16.1,0.5-20.1
					c7.9-4.5,17.6-4.6,25.6-0.4c4.9,2.7,7.6,8.2,6.8,13.8h-3.2c0-0.2-0.3-0.3-0.3-0.4c-0.4-10.2-9-13.4-18.1-12.5
					c-2.7,0.3-5.4,1.1-7.9,2.4c-4.1,2.1-5.8,7.2-3.7,11.3c0.9,1.8,2.5,3.2,4.3,4c4,1.5,8.3,2.4,12.4,3.6c3.3,0.9,6.8,1.5,10,2.6
					c4.7,1.5,7.9,5.8,8.1,10.7c0.8,5.4-1.9,10.7-6.8,13.1c-8.8,5-23.2,3.6-29.7-2.6C236.3,131.3,234.4,126.8,234.5,122.2z"/>
				<path id="path10" d="M323.3,102.5h-3.5c0-0.4-0.1-0.9-0.2-1.3c-0.1-5.4-4-10-9.3-11c-4.9-1.4-10-1.1-14.7,0.7
					c-3.8,1.1-6.4,4.6-6.5,8.5c-0.1,3.9,2.5,7.4,6.3,8.3c5.3,1.6,10.6,2.6,16,4.1c1.7,0.4,3.4,0.9,5.1,1.6c6.8,2.4,10.4,10,7.9,16.8
					c-1.2,3.5-3.9,6.2-7.2,7.7c-7.5,3.4-16.1,3.5-23.6,0.2c-6.3-2.7-10.2-9.1-9.9-15.9h3.4c2.1,10.3,12.2,17,22.6,14.9
					c2.3-0.5,4.6-1.4,6.6-2.7c3.2-1.7,5.2-5.1,5-8.8c0.2-3.6-2.1-6.9-5.5-8.1c-4.1-1.5-8.5-2.3-12.6-3.7c-4.4-1.2-8.6-2.8-12.8-4.6
					c-6.6-3.2-7.1-15.9,0.4-20c8.1-4.7,18-4.7,26.1-0.2C321.4,91.8,324,97.1,323.3,102.5z"/>
				<path id="path12" d="M94.5,139c-2.9,1.1-6.1-0.1-7.5-2.9c-4.3-6.4-9-12.5-13.6-18.8l-2-2.6c-5.4,7.3-10.8,14.3-15.7,21.4
					c-1.3,2.6-4.4,3.8-7.1,2.8L69,111.7L50.1,87.1c2.8-1,5.9,0.1,7.5,2.6c4.4,6.4,9.3,12.5,14.1,19c4.9-6.4,9.7-12.6,14.2-18.9
					c1.3-2.5,4.3-3.6,7-2.6l-7.3,9.7c-3.3,4.3-6.5,8.7-9.9,12.9c-1.1,1-1.2,2.6-0.2,3.7c0.1,0.1,0.1,0.1,0.2,0.2
					C81.8,122.1,88.1,130.4,94.5,139z"/>
				<path id="path14" d="M180.7,86.8v3.7c-10.5-0.7-19.5,7.2-20.2,17.7v0.1c0,0.6,0,1.3,0,1.9v28.9h-3.8v-52h3.7v10.6
					C164.9,89.9,171.9,87.1,180.7,86.8z"/>
				<path id="path16" d="M0,111.4c0.6-2.6,0.9-5.5,1.6-8.2c4.5-16.2,23.1-22.9,35.8-12.9c7.5,5.8,9.3,14.2,9,23.5h-42
					c-0.7,16.7,11.4,26.8,26.8,21.6c5.1-1.8,8.9-6.1,10.2-11.3c0.8-2.6,2.1-3.1,4.6-2.3c-0.8,6.5-4.6,12.2-10.2,15.6
					c-9.4,5.1-21,3.7-28.8-3.7c-3.7-4.2-6-9.6-6.4-15.2c-0.1-0.9-0.3-1.7-0.6-2.6V111.4z M4.4,110.2h38
					c-0.2-12.1-7.9-20.7-18.1-20.8C13,89.3,4.9,97.7,4.4,110.2L4.4,110.2z"/>
			</g>
		</g>
	</g>
</g>
<g>
	<path d="M524.6,92.6c-3.6-6.2-8.3-10.6-15.2-12.3c-6.2-1.6-12.3-1.5-18.2,0.7c-7.6,2.8-12.4,8.2-13.9,16.2
		c-1.1,6.2,0,12.1,3.6,17.4c2.5,3.6,5.9,6.3,9.7,8.2c5,2.5,10,4.6,15,7c1.5,0.7,3.1,1.7,4.3,2.8c4.2,3.7,3,9.9-2,12.3
		c-6.4,3-15.2,0.9-19.8-5c-0.9-1.1-1.7-2.3-2.7-3.6c-4.5,2.6-8.8,5.1-13.4,7.8c0.9,1.4,1.6,2.7,2.4,4c4.8,6.8,11.6,10.6,19.6,12.2
		c4.2,0.8,8.4,0.9,12.6,0.4c5.7-0.6,10.8-2.3,15.2-6c3.5-2.9,5.7-6.6,6.7-10.9c0.8-3.7,0.8-7.4,0.1-11.2c-0.7-3.9-2.3-7.2-5-10.1
		c-4.2-4.6-9.6-7.2-15.1-9.7c-3.3-1.5-6.6-2.9-9.8-4.4c-4.2-2-5.7-4.7-5.4-8.7c0.2-2.3,1.4-3.8,3.4-4.9c3.3-1.9,9.3-1.1,12.1,2.5
		c0.8,1.1,1.7,2.2,2.7,3.4C516.1,98.1,520.3,95.4,524.6,92.6z"/>
	<path d="M524.6,92.6c-4.3,2.7-8.5,5.4-12.8,8.2c-1-1.3-1.8-2.3-2.7-3.4c-2.8-3.6-8.8-4.4-12.1-2.5c-2,1.1-3.2,2.6-3.4,4.9
		c-0.4,4,1.2,6.7,5.4,8.7c3.2,1.6,6.6,2.9,9.8,4.4c5.5,2.5,10.9,5.1,15.1,9.7c2.6,2.9,4.3,6.2,5,10.1c0.7,3.7,0.7,7.5-0.1,11.2
		c-1,4.4-3.2,8.1-6.7,10.9c-4.4,3.6-9.6,5.4-15.2,6c-4.2,0.4-8.5,0.4-12.6-0.4c-8-1.6-14.8-5.4-19.6-12.2c-0.9-1.2-1.5-2.5-2.4-4
		c4.6-2.7,8.9-5.2,13.4-7.8c1,1.3,1.8,2.4,2.7,3.6c4.6,6,13.5,8,19.8,5c5.1-2.3,6.2-8.6,2-12.3c-1.3-1.1-2.8-2-4.3-2.8
		c-5-2.4-10.1-4.6-15-7c-3.9-1.9-7.3-4.6-9.7-8.2c-3.6-5.3-4.7-11.2-3.6-17.4c1.4-8,6.3-13.4,13.9-16.2c5.9-2.2,12.1-2.2,18.2-0.7
		C516.3,82.1,521,86.4,524.6,92.6z"/>
	<path d="M463.6,80.1c0,17.9,0,38.3,0,56.2c0,3.7-0.4,7.4-1.8,11c-2.3,5.7-6.1,9.7-12,11.9c-6.4,2.3-12.8,2.4-19.2,0.7
		c-7.3-1.9-12.5-6.5-15.9-13.3c-0.1-0.2-0.1-0.4-0.3-0.8c4.4-2.6,8.8-5.3,13.3-8.1c0.8,1.2,1.4,2.2,2,3.2c2.4,3.9,5.8,5.8,10.5,5.1
		c3-0.4,5.2-1.9,5.9-5c0.4-1.9,0.7-3.8,0.7-5.8c0.1-8.7,0-17.3,0-26c0-8.7,0-20.4,0-29.2H463.6z"/>
</g>
</svg>
